# xmcd CD database file
# Copyright (C) 1993-1998 Ti Kan
#
# Track frame offsets:
#	150
#	13712
#	24937
#	37262
#	50287
#	60662
#	82112
#	108637
#	129812
#	140212
#	154337
#	167725
#	178975
#	202975
#	219187
#	238037
#
# Disc length: 3342 seconds
#
# Revision: 0
# Processed by: cddbd v1.4b41PL1 Copyright (c) Steve Scherf et al.
# Submitted via: CDmax 1.5
#
DISCID=e10d0c10
DTITLE=Memphis Slim - BLACK 'N' BLUES
DYEAR=1900
DGENRE=
TTITLE0=Every Day I Have The Blues
TTITLE1=Let's Get With It
TTITLE2=Sassy Mae
TTITLE3=Only Fools Love Fun
TTITLE4=Little Lonely Girl
TTITLE5=Strollin' Thru The Park
TTITLE6=Freedom
TTITLE7=Forty Years Or More
TTITLE8=All By Myself
TTITLE9=Broadway Boogie
TTITLE10=Ramble This Highway
TTITLE11=Ballin' The Jack
TTITLE12=Rock Me Baby
TTITLE13=This Little Woman
TTITLE14=Gamblers Blues
TTITLE15=I Am The Blues
EXTD=
EXTT0=
EXTT1=
EXTT2=
EXTT3=
EXTT4=
EXTT5=
EXTT6=
EXTT7=
EXTT8=
EXTT9=
EXTT10=
EXTT11=
EXTT12=
EXTT13=
EXTT14=
EXTT15=
PLAYORDER=
